<?xml version="1.0" standalone="no"?>
<!DOCTYPE svg PUBLIC "-//W3C//DTD SVG 20010904//EN"
 "http://www.w3.org/TR/2001/REC-SVG-20010904/DTD/svg10.dtd">
<svg version="1.0" xmlns="http://www.w3.org/2000/svg"
 width="97.000000pt" height="66.000000pt" viewBox="0 0 97.000000 66.000000"
 preserveAspectRatio="xMidYMid meet">

<g transform="translate(0.000000,66.000000) scale(0.100000,-0.100000)"
fill="#000000" stroke="none">
<path d="M180 441 l0 -121 65 0 c107 0 147 31 147 115 0 83 -33 111 -140 121
l-72 7 0 -122z m155 64 c25 -24 34 -81 19 -120 -9 -24 -58 -45 -104 -45 l-40
0 0 95 0 95 50 0 c41 0 56 -5 75 -25z"/>
<path d="M410 551 c0 -6 21 -11 48 -13 l47 -3 3 -112 c2 -91 5 -113 17 -113
12 0 15 21 15 115 l0 115 45 0 c25 0 45 5 45 10 0 6 -43 10 -110 10 -62 0
-110 -4 -110 -9z"/>
<path d="M275 205 c0 -51 3 -65 15 -65 12 0 15 14 15 65 0 51 -3 65 -15 65
-12 0 -15 -14 -15 -65z"/>
<path d="M391 265 c-2 -5 -3 -18 -2 -27 2 -13 -3 -16 -16 -12 -17 5 -17 5 0
-6 19 -12 23 -55 5 -66 -16 -10 -37 23 -30 48 3 14 1 19 -6 14 -17 -10 -15
-66 2 -72 8 -3 25 -4 38 -2 22 3 23 6 17 68 -3 36 -7 61 -8 55z"/>
<path d="M665 260 c-3 -5 -1 -10 4 -10 6 0 11 5 11 10 0 6 -2 10 -4 10 -3 0
-8 -4 -11 -10z"/>
<path d="M608 235 c-2 -2 -2 -24 0 -49 3 -35 8 -46 21 -45 10 0 11 2 4 6 -16
6 -17 70 -1 75 8 3 6 6 -4 10 -9 4 -18 5 -20 3z"/>
<path d="M715 227 c-9 -22 -2 -80 10 -84 6 -2 9 16 9 42 -1 49 -10 67 -19 42z"/>
<path d="M458 223 c6 -2 12 -9 12 -14 0 -14 -28 -11 -33 4 -2 6 -8 0 -12 -16
-5 -17 -3 -33 5 -42 13 -16 46 -20 54 -7 3 5 -5 8 -17 8 -13 -1 -23 6 -25 17
-3 13 3 17 22 17 16 0 26 6 26 14 0 13 -22 27 -38 25 -4 0 -1 -3 6 -6z"/>
<path d="M519 229 c-7 -27 -3 -89 5 -89 12 0 13 76 2 87 -3 3 -6 4 -7 2z"/>
<path d="M558 185 c3 -27 9 -45 16 -45 9 0 11 13 7 42 -8 57 -27 60 -23 3z"/>
<path d="M667 224 c-13 -13 -8 -84 6 -84 9 0 12 12 9 38 -5 50 -6 54 -15 46z"/>
<path d="M763 223 c3 -5 12 -26 22 -48 l16 -40 15 34 c17 41 18 54 0 23 l-13
-24 -13 31 c-7 17 -17 31 -22 31 -5 0 -7 -3 -5 -7z"/>
<path d="M778 123 c-21 -5 -24 -23 -4 -23 8 0 16 7 20 15 3 8 4 14 3 14 -1 -1
-10 -3 -19 -6z"/>
</g>
</svg>
